PathFileType	4	(X/Y/Z)	Run_200 01
DataRate	CameraRate	NumFrames	NumMarkers	Units	OrigDataRate	OrigDataStartFrame	OrigNumFrames
120	120	8	42	mm	120	93	128
Frame#	Time	LASI			RASI			LPSI			RPSI			RTH1			RTH2			RTH3			LTH1			LTH2			LTH3			RTB2			RTB3			LTB1			LTB2			LTB3			RCAL			RTOE			RMT5			LCAL			LTOE			LMT5			LACR			RACR			CLAV			C7			RUA1			RUA2			RUA3			RLEL			RMEL			LUA1			LUA2			LUA3			LLEL			LMEL			RFAsuperior			RFAradius			RFAulna			LFAsuperior			LFAradius			LFAulna			RTB1			
		X1	Y1	Z1	X2	Y2	Z2	X3	Y3	Z3	X4	Y4	Z4	X5	Y5	Z5	X6	Y6	Z6	X7	Y7	Z7	X8	Y8	Z8	X9	Y9	Z9	X10	Y10	Z10	X11	Y11	Z11	X12	Y12	Z12	X13	Y13	Z13	X14	Y14	Z14	X15	Y15	Z15	X16	Y16	Z16	X17	Y17	Z17	X18	Y18	Z18	X19	Y19	Z19	X20	Y20	Z20	X21	Y21	Z21	X22	Y22	Z22	X23	Y23	Z23	X24	Y24	Z24	X25	Y25	Z25	X26	Y26	Z26	X27	Y27	Z27	X28	Y28	Z28	X29	Y29	Z29	X30	Y30	Z30	X31	Y31	Z31	X32	Y32	Z32	X33	Y33	Z33	X34	Y34	Z34	X35	Y35	Z35	X36	Y36	Z36	X37	Y37	Z37	X38	Y38	Z38	X39	Y39	Z39	X40	Y40	Z40	X41	Y41	Z41	X42	Y42	Z42	

92	0.991667	495.083197	980.989429	-427.62858	478.519415	989.8971770000001	-176.87486	317.070349	994.329225	-358.726179	309.947162	999.160061	-274.527533	478.080275	813.850455	-143.200652	568.867335	715.729785	-179.232914	522.3682250000001	575.217124	-181.136896	472.97729	830.349756	-471.58639	535.076595	726.0459540000001	-465.350025	484.350672	582.955969	-469.128952	526.829617	314.738344	-200.735678	504.04095	206.032158	-274.456005	417.833489	380.364406	-397.153868	301.178967	370.723805	-442.136177	240.154049	319.16043	-368.720495	353.297344	98.802713	-269.74063	572.039344	69.57640600000001	-287.239665	543.887717	62.870914	-191.425815	87.623491	369.325614	-357.491428	171.066968	169.762569	-363.940866	127.858161	184.821976	-448.221166	477.813891	1422.63933	-477.45016	445.15177	1411.587221	-91.51038699999999	554.7958630000001	1385.530218	-251.357828	434.293702	1487.211968	-286.875245	410.901881	1307.0994	-26.534926	424.670512	1238.878676	-19.096493	323.012262	1233.465422	9.388413999999999	342.010669	1156.494158	59.442028	302.111389	1123.925008	-13.405098	439.338129	1355.886622	-534.078953	358.284087	1311.731241	-526.466128	406.788926	1274.434662	-576.065889	360.771842	1181.156132	-621.7408349999999	302.997083	1150.827613	-559.364241	423.192441	1134.874001	51.821339	571.882706	1097.635994	-12.233185	542.968017	1036.182866	1.248669	428.554014	1164.243776	-600.230603	547.6266869999999	1129.148947	-474.316696	540.40999	1070.249227	-506.800565	571.429273	371.546179	-257.806022	
93	1	494.019502	977.769783	-428.152767	475.199393	988.033678	-175.461397	316.110786	993.122252	-360.754273	308.347096	997.812832	-276.902335	473.493087	810.915205	-142.643435	563.452004	711.313255	-177.1592	514.914805	571.56271	-180.741649	475.51773	829.54188	-470.452318	542.4836299999999	727.37154	-463.036091	495.507779	582.979441	-468.219133	514.706722	310.702242	-200.573742	489.365483	202.989016	-274.772436	430.713463	383.383244	-395.644331	314.976521	372.131902	-441.999181	252.680844	322.436466	-368.299623	336.478306	98.80869	-269.867726	555.058002	69.09061199999999	-287.143548	526.785116	62.714573	-191.371172	98.829387	372.569594	-360.503617	184.156278	173.631789	-362.544545	142.591915	186.97151	-447.604287	473.933229	1420.740956	-476.372597	446.0022	1407.647212	-90.00632400000001	554.5491479999999	1382.392594	-251.469952	433.798303	1484.357561	-284.714478	414.035245	1302.491938	-25.38565	429.895167	1234.314372	-18.560009	328.584625	1226.288359	10.87906	351.514519	1150.218549	61.017444	310.474488	1115.908993	-10.272175	434.557598	1354.112468	-532.345746	354.030189	1309.20212	-521.706587	400.840347	1273.302797	-573.528825	354.438671	1179.94907	-618.199304	297.99987	1148.917639	-555.4156850000001	432.987414	1130.046414	51.044559	580.49054	1092.773897	-13.5307	551.8590349999999	1031.136877	1.016965	422.668792	1161.990147	-597.488826	543.8134669999999	1122.184883	-476.157772	534.690434	1063.853379	-509.167122	561.45385	366.697279	-257.191141	
94	1.008333	493.009492	975.896602	-428.332056	472.143576	986.723652	-173.578475	315.363765	993.3396279999999	-362.058643	307.547883	997.615396	-277.897141	468.712854	808.797822	-142.019608	557.2682569999999	707.35684	-175.181216	506.338451	568.6334000000001	-180.242451	477.272297	828.935849	-469.35165	549.783621	729.26911	-460.684676	506.341723	583.719099	-467.242236	501.757131	307.386909	-200.083427	474.520323	200.497849	-274.57484	443.830394	386.542091	-394.221915	329.02297	373.398878	-441.808886	265.664742	324.909007	-368.223538	319.671323	98.893399	-269.924009	538.104483	68.74934500000001	-287.028216	509.767041	62.567529	-191.288345	110.447047	374.355855	-363.482804	198.620187	176.35971	-361.489594	158.248467	188.007408	-446.961202	470.270271	1419.923285	-475.176064	447.22655	1404.639948	-88.89219199999999	554.242375	1379.990208	-251.506382	432.90137	1482.041677	-282.810623	417.085718	1299.216691	-24.492783	434.834229	1231.29482	-18.014662	333.839849	1220.464895	11.387939	360.784556	1145.303319	62.092212	318.390696	1109.384859	-7.734721	429.729028	1353.679821	-530.487479	349.910821	1307.949843	-517.1298860000001	394.916606	1273.133856	-571.137699	348.005389	1179.951912	-614.781565	292.775852	1148.149339	-551.430943	442.492913	1126.516013	49.874656	589.143459	1089.577074	-15.854916	560.7375950000001	1027.871935	-0.473229	416.554757	1161.270866	-594.515574	540.012524	1116.677573	-477.889499	528.764931	1058.928674	-511.604018	550.574765	362.5121	-256.292561	
95	1.016667	491.928035	975.240492	-427.868706	469.524157	985.8600290000001	-171.836381	314.493335	993.920002	-362.417773	306.795575	997.994037	-277.668177	463.977099	807.644414	-141.428261	550.623648	704.283285	-173.662073	497.196616	566.628585	-179.541174	478.398107	828.437982	-468.377988	556.410404	731.54894	-458.276439	516.576921	585.078453	-466.168271	488.563622	305.147157	-199.436331	459.73929	198.944191	-274.06062	457.105545	389.410567	-392.732384	343.225716	374.505353	-441.597444	278.955638	326.605773	-368.352005	303.006913	99.19495499999999	-269.989627	521.38428	68.451707	-287.008033	492.905313	62.396342	-191.188888	122.394138	374.654772	-366.263581	214.219451	178.040551	-360.675009	174.741438	188.051861	-446.417532	466.948825	1419.998075	-473.987645	448.968801	1402.655463	-87.944728	553.979906	1378.386756	-251.651944	432.096267	1480.718667	-281.204772	420.155861	1296.876864	-23.897233	439.44059	1229.438044	-17.485525	338.809152	1215.892095	11.241809	369.323816	1141.418708	62.776977	325.74251	1104.381664	-5.915996	424.924344	1354.323208	-528.63188	345.7809	1307.88826	-513.0297870000001	389.010649	1273.815929	-569.041657	341.323771	1181.013547	-611.845659	287.329161	1148.586194	-547.556782	451.231014	1123.694914	48.717496	597.527102	1088.285098	-19.1798	569.485011	1026.502736	-3.360542	409.982789	1161.513206	-592.002339	536.065364	1113.04039	-479.621026	522.736011	1055.765625	-514.023233	539.00161	359.418279	-255.22988	
96	1.025	490.782705	975.547646	-426.949758	467.447471	985.698201	-170.819277	313.422706	994.439982	-362.007557	305.647297	998.727923	-276.750089	459.414841	807.346952	-140.947009	543.845808	702.176426	-172.63931	487.810514	565.454742	-178.651233	479.195832	828.397525	-467.594563	561.923193	734.297279	-455.937068	526.009726	587.215607	-464.993035	475.223697	303.88159	-198.796237	444.94533	198.302495	-273.522767	470.42263	391.877921	-391.101518	357.474204	375.481078	-441.381928	292.48659	327.615001	-368.433183	286.493917	99.751412	-270.079386	504.914663	68.233323	-287.094284	476.119811	62.201856	-191.081491	134.558894	373.416609	-368.698921	230.691517	178.863273	-359.815955	192.14002	187.174149	-445.977358	463.946611	1420.824215	-472.940243	451.108285	1401.70844	-87.02467300000001	553.787561	1377.747989	-252.04897	431.742867	1480.684241	-279.834796	423.33356	1295.254222	-23.588519	443.812431	1228.417117	-17.06919	343.610806	1212.42126	10.886572	376.963281	1138.241328	63.1296	332.810553	1100.761332	-4.923672	420.249152	1355.82079	-526.919683	341.555373	1308.976713	-509.537162	383.092933	1275.367738	-567.2464639999999	334.325586	1182.957808	-609.58317	281.737762	1150.259929	-543.890156	459.07154	1121.2991	47.723383	605.341889	1088.937903	-23.376709	578.005088	1026.933478	-7.50727	402.857802	1162.265837	-590.380468	531.751829	1111.487058	-481.533806	516.67471	1054.506957	-516.264155	526.755474	357.319972	-254.186198	
97	1.033333	489.773003	976.572188	-426.018842	465.945173	986.482215	-170.70519	312.297447	995.1678450000001	-361.214893	304.23425	999.935736	-275.697617	455.015098	807.692651	-140.588683	537.13332	700.8828150000001	-171.948125	478.208322	564.917759	-177.687078	479.975876	829.295247	-467.004975	566.210513	737.735402	-453.940248	534.553839	590.364885	-463.71287	461.508196	303.296894	-198.212796	429.971607	198.289277	-273.130962	483.632891	394.159361	-389.33726	371.634868	376.379259	-441.102897	306.282407	327.986818	-368.260715	270.110819	100.517749	-270.142665	488.591607	68.159695	-287.203848	459.30971	62.002436	-190.969243	146.858113	370.594	-370.680475	247.840442	178.949295	-358.72037	210.537551	185.415254	-445.552377	461.168153	1422.350675	-472.112369	453.381091	1401.764514	-86.121763	553.64348	1378.208746	-252.70751	431.821871	1481.858611	-278.605631	426.681825	1294.362917	-23.499594	448.115958	1228.097743	-16.874273	348.38471	1209.958438	10.7109	383.914278	1135.689861	63.150655	339.96422	1098.347407	-4.755499	415.826249	1358.052745	-525.462701	337.272529	1311.236665	-506.637077	377.194961	1277.848545	-565.660627	327.079317	1185.697941	-607.9267160000001	276.093421	1153.178664	-540.483799	466.234474	1119.526525	46.726346	612.411573	1091.406791	-28.264692	586.23409	1028.960002	-12.569656	395.272276	1163.566993	-589.5407709999999	526.919011	1111.989782	-483.688004	510.549591	1055.104405	-518.1687470000001	513.818657	355.914928	-253.238554	
98	1.041667	489.112896	978.1859030000001	-425.311508	464.986097	988.16221	-171.243883	311.325642	996.629019	-360.396998	303.00141	1001.857665	-274.838526	450.693409	808.52332	-140.331704	530.4766540000001	700.176742	-171.425485	468.234217	564.915991	-176.804941	480.903477	831.4122180000001	-466.570497	569.492565	742.02646	-452.540574	542.20698	594.634132	-462.303087	447.19006	303.191075	-197.631516	414.709505	198.605013	-272.880951	496.589337	396.660019	-387.491447	385.565855	377.231158	-440.607871	320.414231	327.724179	-367.741479	253.829619	101.404872	-270.123136	472.245167	68.20501899999999	-287.234779	442.4416	61.823771	-190.846618	159.267864	366.16764	-372.145132	265.69986	178.269015	-357.470819	229.942763	182.814761	-445.038694	458.518406	1424.593058	-471.497854	455.556608	1402.779092	-85.304143	553.516271	1379.777521	-253.530905	432.026356	1483.899985	-277.47043	430.220956	1294.335664	-23.555179	452.496304	1228.521984	-16.990424	353.270665	1208.502428	10.934081	390.603468	1133.974762	62.822973	347.286604	1097.047732	-5.233088	411.736406	1361.001202	-524.302667	333.058522	1314.6893	-504.245496	371.448322	1281.279593	-564.213303	319.770573	1189.295764	-606.60417	270.461566	1157.316589	-537.3837129999999	473.099826	1118.886404	45.378611	618.723213	1095.46604	-33.68192	594.136045	1032.38484	-18.192858	387.471522	1165.900894	-588.95889	521.594006	1114.319699	-485.926588	504.271746	1057.375305	-519.655981	500.284828	355.102795	-252.273885	
99	1.05	488.814881	980.411331	-424.662753	464.513222	990.429178	-171.974517	310.637616	999.139197	-359.745167	302.276023	1004.628315	-274.222637	446.383545	809.798128	-140.170732	523.703113	699.883322	-171.036687	457.720686	565.493708	-176.142317	481.92495	834.696624	-466.252554	572.150405	747.178914	-451.785267	548.9886320000001	599.912868	-460.724875	432.241768	303.553049	-196.99777	399.132419	199.114149	-272.6822	509.18102	399.751672	-385.62395	399.140519	378.0143	-439.721085	334.889966	326.834932	-366.889989	237.593846	102.339746	-270.008584	455.707432	68.24362600000001	-287.171735	425.549951	61.698024	-190.705673	171.808965	360.161387	-373.06187	284.568762	176.690501	-356.355403	250.253569	179.42806	-444.376272	455.9389	1427.578949	-471.021541	457.529373	1404.711358	-84.650648	553.3902399999999	1382.333307	-254.409902	432.05384	1486.490275	-276.458091	433.923732	1295.275726	-23.724002	457.016651	1229.791192	-17.505992	358.39773	1208.116826	11.593373	397.412751	1133.425127	62.155686	354.51672	1096.873639	-6.045831	407.973311	1364.711127	-523.39311	329.039862	1319.279869	-502.269668	366.040025	1285.625816	-562.919829	312.632725	1193.904534	-605.309797	264.877088	1162.599072	-534.65318	479.967018	1119.850792	43.383219	624.379585	1100.856892	-39.527646	601.677697	1037.06305	-24.169574	379.797786	1169.793269	-588.159854	515.9814260000001	1118.132214	-487.970434	497.835879	1061.093643	-520.7434929999999	486.335449	355.07252	-251.114292	
